<svg width="59" height="41" viewBox="0 0 59 41" fill="none" xmlns="http://www.w3.org/2000/svg">
<g id="Vector">
<mask id="path-1-inside-1_2_29" fill="white">
<path d="M57.6001 19.8281L30.4726 0.738336C30.1652 0.521316 29.7663 0.495194 29.4317 0.668006C29.0992 0.839814 28.8902 1.18443 28.8902 1.5592V19.4202L2.34037 0.749389C2.03393 0.535383 1.63405 0.50725 1.29948 0.680063C0.966917 0.852875 0.757935 1.19749 0.757935 1.57226V39.7266C0.757935 40.1014 0.966917 40.446 1.29948 40.6188C1.44617 40.6932 1.60492 40.7303 1.76266 40.7303C1.96561 40.7303 2.16756 40.668 2.34037 40.5475L28.8902 21.8777V39.7387C28.8902 40.1134 29.0992 40.4581 29.4317 40.6309C29.5784 40.7062 29.7372 40.7434 29.8949 40.7434C30.0979 40.7434 30.3008 40.6811 30.4726 40.5595L57.6001 21.4698C57.8684 21.2829 58.0271 20.9755 58.0271 20.6489C58.0271 20.3224 57.8684 20.015 57.6001 19.8281ZM2.76738 37.7915V3.50735L27.144 20.6489L2.76738 37.7915ZM30.8996 37.8026V3.4953L55.2772 20.6489L30.8996 37.8026Z"/>
</mask>
<path d="M57.6001 19.8281L30.4726 0.738336C30.1652 0.521316 29.7663 0.495194 29.4317 0.668006C29.0992 0.839814 28.8902 1.18443 28.8902 1.5592V19.4202L2.34037 0.749389C2.03393 0.535383 1.63405 0.50725 1.29948 0.680063C0.966917 0.852875 0.757935 1.19749 0.757935 1.57226V39.7266C0.757935 40.1014 0.966917 40.446 1.29948 40.6188C1.44617 40.6932 1.60492 40.7303 1.76266 40.7303C1.96561 40.7303 2.16756 40.668 2.34037 40.5475L28.8902 21.8777V39.7387C28.8902 40.1134 29.0992 40.4581 29.4317 40.6309C29.5784 40.7062 29.7372 40.7434 29.8949 40.7434C30.0979 40.7434 30.3008 40.6811 30.4726 40.5595L57.6001 21.4698C57.8684 21.2829 58.0271 20.9755 58.0271 20.6489C58.0271 20.3224 57.8684 20.015 57.6001 19.8281ZM2.76738 37.7915V3.50735L27.144 20.6489L2.76738 37.7915ZM30.8996 37.8026V3.4953L55.2772 20.6489L30.8996 37.8026Z" fill="white"/>
<path d="M57.6001 19.8281L55.5681 22.7157L55.575 22.7205L55.5819 22.7253L57.6001 19.8281ZM30.4726 0.738336L28.4364 3.62296L28.4406 3.62592L30.4726 0.738336ZM29.4317 0.668006L27.8114 -2.46912L27.8111 -2.46899L29.4317 0.668006ZM28.8902 19.4202L26.8591 22.3084L32.4211 26.2198V19.4202H28.8902ZM2.34037 0.749389L4.37148 -2.13884L4.36202 -2.14545L2.34037 0.749389ZM1.29948 0.680063L-0.320899 -2.45707L-0.328609 -2.45306L1.29948 0.680063ZM1.29948 40.6188L-0.328609 43.7519L-0.312752 43.7602L-0.296813 43.7683L1.29948 40.6188ZM2.34037 40.5475L4.36069 43.4433L4.3714 43.4357L2.34037 40.5475ZM28.8902 21.8777H32.4211V15.0783L26.8592 18.9894L28.8902 21.8777ZM29.4317 40.6309L27.8036 43.764L27.811 43.7678L27.8183 43.7716L29.4317 40.6309ZM30.4726 40.5595L28.4406 37.6719L28.4331 37.6772L30.4726 40.5595ZM57.6001 21.4698L55.5819 18.5726L55.575 18.5774L55.5681 18.5822L57.6001 21.4698ZM2.76738 37.7915H-0.763503V44.5911L4.79848 40.6797L2.76738 37.7915ZM2.76738 3.50735L4.79841 0.619087L-0.763503 -3.29204V3.50735H2.76738ZM27.144 20.6489L29.1751 23.5371L33.2822 20.6488L29.175 17.7607L27.144 20.6489ZM30.8996 37.8026H27.3687V44.6046L32.9315 40.6902L30.8996 37.8026ZM30.8996 3.4953L32.9315 0.607663L27.3687 -3.30668V3.4953H30.8996ZM55.2772 20.6489L57.3091 23.5366L61.4129 20.6489L57.3091 17.7613L55.2772 20.6489ZM59.6321 16.9405L32.5046 -2.14924L28.4406 3.62592L55.5681 22.7157L59.6321 16.9405ZM32.5088 -2.14628C31.1159 -3.12956 29.3064 -3.24132 27.8114 -2.46912L31.0521 3.80513C30.2262 4.23171 29.2145 4.17219 28.4364 3.62296L32.5088 -2.14628ZM27.8111 -2.46899C26.2994 -1.68803 25.3593 -0.129619 25.3593 1.5592H32.4211C32.4211 2.49849 31.8989 3.36765 31.0523 3.805L27.8111 -2.46899ZM25.3593 1.5592V19.4202H32.4211V1.5592H25.3593ZM30.9213 16.5319L4.37147 -2.13883L0.309277 3.6376L26.8591 22.3084L30.9213 16.5319ZM4.36202 -2.14545C2.98573 -3.1066 1.18396 -3.23434 -0.320894 -2.45706L2.91986 3.81718C2.08415 4.24884 1.08214 4.17736 0.318731 3.64423L4.36202 -2.14545ZM-0.328609 -2.45306C-1.83209 -1.67179 -2.77295 -0.118124 -2.77295 1.57226H4.28882C4.28882 2.51311 3.76593 3.37754 2.92757 3.81319L-0.328609 -2.45306ZM-2.77295 1.57226V39.7266H4.28882V1.57226H-2.77295ZM-2.77295 39.7266C-2.77295 41.417 -1.8321 42.9707 -0.328609 43.7519L2.92757 37.4857C3.76593 37.9213 4.28882 38.7858 4.28882 39.7266H-2.77295ZM-0.296813 43.7683C0.344051 44.0931 1.0496 44.2612 1.76266 44.2612V37.1995C2.16023 37.1995 2.54829 37.2932 2.89577 37.4694L-0.296813 43.7683ZM1.76266 44.2612C2.68847 44.2612 3.59553 43.9771 4.36068 43.4432L0.320067 37.6517C0.739594 37.359 1.24275 37.1995 1.76266 37.1995V44.2612ZM4.3714 43.4357L30.9212 24.766L26.8592 18.9894L0.30935 37.6592L4.3714 43.4357ZM25.3593 21.8777V39.7387H32.4211V21.8777H25.3593ZM25.3593 39.7387C25.3593 41.429 26.3001 42.9827 27.8036 43.764L31.0598 37.4977C31.8982 37.9334 32.4211 38.7978 32.4211 39.7387H25.3593ZM27.8183 43.7716C28.4687 44.1057 29.1811 44.2743 29.8949 44.2743V37.2125C30.2932 37.2125 30.6881 37.3068 31.0451 37.4901L27.8183 43.7716ZM29.8949 44.2743C30.8162 44.2743 31.7341 43.9924 32.5121 43.4418L28.4331 37.6772C28.8676 37.3698 29.3795 37.2125 29.8949 37.2125V44.2743ZM32.5046 43.4471L59.6321 24.3574L55.5681 18.5822L28.4406 37.672L32.5046 43.4471ZM59.6184 24.367C60.8445 23.5129 61.558 22.1181 61.558 20.6489H54.4963C54.4963 19.8328 54.8923 19.053 55.5819 18.5726L59.6184 24.367ZM61.558 20.6489C61.558 19.1798 60.8445 17.785 59.6184 16.9309L55.5819 22.7253C54.8923 22.2449 54.4963 21.465 54.4963 20.6489H61.558ZM6.29826 37.7915V3.50735H-0.763503V37.7915H6.29826ZM0.736356 6.39562L25.1129 23.5372L29.175 17.7607L4.79841 0.619087L0.736356 6.39562ZM25.1129 17.7607L0.736277 34.9033L4.79848 40.6797L29.1751 23.5371L25.1129 17.7607ZM34.4305 37.8026V3.4953H27.3687V37.8026H34.4305ZM28.8677 6.38293L53.2453 23.5366L57.3091 17.7613L32.9315 0.607663L28.8677 6.38293ZM53.2453 17.7613L28.8677 34.9149L32.9315 40.6902L57.3091 23.5366L53.2453 17.7613Z" fill="white" mask="url(#path-1-inside-1_2_29)"/>
</g>
</svg>
