<svg width="86" height="86" viewBox="0 0 86 86" fill="none" xmlns="http://www.w3.org/2000/svg">
<g id="Group 2">
<g id="Group">
<g id="Vector">
<mask id="path-1-inside-1_2_25" fill="white">
<path d="M65.1005 42.087L33.7866 20.7366C33.3496 20.4405 32.786 20.4078 32.3191 20.654C31.8537 20.9003 31.5619 21.3842 31.5619 21.9123V64.613C31.5619 65.1411 31.8537 65.625 32.3205 65.8713C32.5284 65.9823 32.7575 66.0364 32.9852 66.0364C33.2656 66.0364 33.5461 65.9524 33.7866 65.7887L65.1005 44.4383C65.489 44.1736 65.7225 43.7338 65.7225 43.2626C65.7225 42.7915 65.489 42.3517 65.1005 42.087ZM34.4086 61.9186V24.6067L61.7727 43.2626L34.4086 61.9186Z"/>
</mask>
<path d="M65.1005 42.087L33.7866 20.7366C33.3496 20.4405 32.786 20.4078 32.3191 20.654C31.8537 20.9003 31.5619 21.3842 31.5619 21.9123V64.613C31.5619 65.1411 31.8537 65.625 32.3205 65.8713C32.5284 65.9823 32.7575 66.0364 32.9852 66.0364C33.2656 66.0364 33.5461 65.9524 33.7866 65.7887L65.1005 44.4383C65.489 44.1736 65.7225 43.7338 65.7225 43.2626C65.7225 42.7915 65.489 42.3517 65.1005 42.087ZM34.4086 61.9186V24.6067L61.7727 43.2626L34.4086 61.9186Z" fill="white"/>
<path d="M65.1005 42.087L63.1114 45.0043L63.1124 45.0049L65.1005 42.087ZM33.7866 20.7366L35.7757 17.8193L35.7671 17.8134L33.7866 20.7366ZM32.3191 20.654L30.6719 17.5309L30.6679 17.533L32.3191 20.654ZM32.3205 65.8713L33.9843 62.757L33.9761 62.7525L33.9678 62.7482L32.3205 65.8713ZM33.7866 65.7887L35.773 68.7078L35.7757 68.706L33.7866 65.7887ZM65.1005 44.4383L63.1124 41.5203L63.1114 41.521L65.1005 44.4383ZM34.4086 61.9186H30.8777V68.5992L36.3976 64.836L34.4086 61.9186ZM34.4086 24.6067L36.3976 21.6893L30.8777 17.9261V24.6067H34.4086ZM61.7727 43.2626L63.7616 46.18L68.0408 43.2626L63.7616 40.3453L61.7727 43.2626ZM67.0895 39.1696L35.7757 17.8193L31.7975 23.6539L63.1114 45.0043L67.0895 39.1696ZM35.7671 17.8134C34.258 16.791 32.3001 16.6722 30.6719 17.5309L33.9664 23.7771C33.2719 24.1434 32.4412 24.09 31.8061 23.6597L35.7671 17.8134ZM30.6679 17.533C29.0456 18.3913 28.031 20.0766 28.031 21.9123H35.0928C35.0928 22.6918 34.6618 23.4092 33.9703 23.7751L30.6679 17.533ZM28.031 21.9123V64.613H35.0928V21.9123H28.031ZM28.031 64.613C28.031 66.4501 29.0472 68.1367 30.6733 68.9944L33.9678 62.7482C34.6601 63.1133 35.0928 63.832 35.0928 64.613H28.031ZM30.6567 68.9856C31.397 69.3811 32.2009 69.5673 32.9852 69.5673V62.5055C33.3141 62.5055 33.6597 62.5835 33.9843 62.757L30.6567 68.9856ZM32.9852 69.5673C33.9679 69.5673 34.9415 69.2736 35.773 68.7078L31.8002 62.8696C32.1506 62.6312 32.5634 62.5055 32.9852 62.5055V69.5673ZM35.7757 68.706L67.0895 47.3557L63.1114 41.521L31.7975 62.8714L35.7757 68.706ZM67.0886 47.3563C68.4396 46.4358 69.2534 44.9051 69.2534 43.2626H62.1916C62.1916 42.5625 62.5385 41.9114 63.1124 41.5203L67.0886 47.3563ZM69.2534 43.2626C69.2534 41.6202 68.4396 40.0895 67.0886 39.169L63.1124 45.0049C62.5385 44.6139 62.1916 43.9628 62.1916 43.2626H69.2534ZM37.9395 61.9186V24.6067H30.8777V61.9186H37.9395ZM32.4196 27.5241L59.7837 46.18L63.7616 40.3453L36.3976 21.6893L32.4196 27.5241ZM59.7837 40.3453L32.4196 59.0012L36.3976 64.836L63.7616 46.18L59.7837 40.3453Z" fill="white" mask="url(#path-1-inside-1_2_25)"/>
</g>
<g id="Vector_2">
<mask id="path-3-inside-2_2_25" fill="white">
<path d="M42.9487 0.562042C19.4035 0.562042 0.247925 19.7176 0.247925 43.2628C0.247925 66.808 19.4035 85.9635 42.9487 85.9635C66.4938 85.9635 85.6494 66.808 85.6494 43.2628C85.6494 19.7176 66.4938 0.562042 42.9487 0.562042ZM42.9487 83.1168C20.9734 83.1168 3.09464 65.238 3.09464 43.2628C3.09464 21.2876 20.9734 3.40876 42.9487 3.40876C64.9239 3.40876 82.8027 21.2876 82.8027 43.2628C82.8027 65.238 64.9239 83.1168 42.9487 83.1168Z"/>
</mask>
<path d="M42.9487 0.562042C19.4035 0.562042 0.247925 19.7176 0.247925 43.2628C0.247925 66.808 19.4035 85.9635 42.9487 85.9635C66.4938 85.9635 85.6494 66.808 85.6494 43.2628C85.6494 19.7176 66.4938 0.562042 42.9487 0.562042ZM42.9487 83.1168C20.9734 83.1168 3.09464 65.238 3.09464 43.2628C3.09464 21.2876 20.9734 3.40876 42.9487 3.40876C64.9239 3.40876 82.8027 21.2876 82.8027 43.2628C82.8027 65.238 64.9239 83.1168 42.9487 83.1168Z" fill="white"/>
<path d="M42.9487 -2.96884C17.4534 -2.96884 -3.28296 17.7675 -3.28296 43.2628H3.77881C3.77881 21.6676 21.3535 4.09293 42.9487 4.09293V-2.96884ZM-3.28296 43.2628C-3.28296 68.758 17.4534 89.4944 42.9487 89.4944V82.4326C21.3535 82.4326 3.77881 64.8579 3.77881 43.2628H-3.28296ZM42.9487 89.4944C68.4439 89.4944 89.1803 68.758 89.1803 43.2628H82.1185C82.1185 64.8579 64.5438 82.4326 42.9487 82.4326V89.4944ZM89.1803 43.2628C89.1803 17.7675 68.4439 -2.96884 42.9487 -2.96884V4.09293C64.5438 4.09293 82.1185 21.6676 82.1185 43.2628H89.1803ZM42.9487 79.5859C22.9235 79.5859 6.62552 63.2879 6.62552 43.2628H-0.436244C-0.436244 67.188 19.0234 86.6477 42.9487 86.6477V79.5859ZM6.62552 43.2628C6.62552 23.2376 22.9235 6.93964 42.9487 6.93964V-0.122127C19.0234 -0.122127 -0.436244 19.3375 -0.436244 43.2628H6.62552ZM42.9487 6.93964C62.9738 6.93964 79.2718 23.2376 79.2718 43.2628H86.3335C86.3335 19.3375 66.8739 -0.122127 42.9487 -0.122127V6.93964ZM79.2718 43.2628C79.2718 63.2879 62.9738 79.5859 42.9487 79.5859V86.6477C66.8739 86.6477 86.3335 67.188 86.3335 43.2628H79.2718Z" fill="white" mask="url(#path-3-inside-2_2_25)"/>
</g>
</g>
</g>
</svg>
