<svg width="59" height="42" viewBox="0 0 59 42" fill="none" xmlns="http://www.w3.org/2000/svg">
<g id="Vector">
<mask id="path-1-inside-1_2_30" fill="white">
<path d="M1.29231 21.7924L28.4198 40.8821C28.7273 41.0991 29.1262 41.1253 29.4607 40.9524C29.7933 40.7806 30.0023 40.436 30.0023 40.0613L30.0023 22.2003L56.5521 40.8711C56.8585 41.0851 57.2584 41.1132 57.593 40.9404C57.9255 40.7676 58.1345 40.423 58.1345 40.0482L58.1345 1.89384C58.1345 1.51908 57.9255 1.17446 57.593 1.00164C57.4463 0.927296 57.2875 0.890118 57.1298 0.890118C56.9268 0.890118 56.7249 0.952412 56.5521 1.07298L30.0023 19.7427L30.0023 1.88178C30.0023 1.50702 29.7933 1.1624 29.4607 0.989583C29.314 0.914228 29.1553 0.877054 28.9976 0.877054C28.7946 0.877054 28.5916 0.939348 28.4198 1.06092L1.29231 20.1507C1.02405 20.3375 0.865309 20.645 0.865309 20.9715C0.865309 21.298 1.02405 21.6055 1.29231 21.7924ZM56.1251 3.82893L56.1251 38.1131L31.7485 20.9715L56.1251 3.82893ZM27.9928 3.81788L27.9928 38.1252L3.61524 20.9715L27.9928 3.81788Z"/>
</mask>
<path d="M1.29231 21.7924L28.4198 40.8821C28.7273 41.0991 29.1262 41.1253 29.4607 40.9524C29.7933 40.7806 30.0023 40.436 30.0023 40.0613L30.0023 22.2003L56.5521 40.8711C56.8585 41.0851 57.2584 41.1132 57.593 40.9404C57.9255 40.7676 58.1345 40.423 58.1345 40.0482L58.1345 1.89384C58.1345 1.51908 57.9255 1.17446 57.593 1.00164C57.4463 0.927296 57.2875 0.890118 57.1298 0.890118C56.9268 0.890118 56.7249 0.952412 56.5521 1.07298L30.0023 19.7427L30.0023 1.88178C30.0023 1.50702 29.7933 1.1624 29.4607 0.989583C29.314 0.914228 29.1553 0.877054 28.9976 0.877054C28.7946 0.877054 28.5916 0.939348 28.4198 1.06092L1.29231 20.1507C1.02405 20.3375 0.865309 20.645 0.865309 20.9715C0.865309 21.298 1.02405 21.6055 1.29231 21.7924ZM56.1251 3.82893L56.1251 38.1131L31.7485 20.9715L56.1251 3.82893ZM27.9928 3.81788L27.9928 38.1252L3.61524 20.9715L27.9928 3.81788Z" fill="white"/>
<path d="M1.29231 21.7924L3.32432 18.9048L3.31746 18.9L3.31058 18.8952L1.29231 21.7924ZM28.4198 40.8821L30.456 37.9975L30.4518 37.9945L28.4198 40.8821ZM29.4607 40.9524L31.0811 44.0896L31.0814 44.0894L29.4607 40.9524ZM30.0023 22.2003L32.0334 19.3121L26.4714 15.4007L26.4714 22.2003L30.0023 22.2003ZM56.5521 40.8711L54.521 43.7593L54.5304 43.7659L56.5521 40.8711ZM57.593 40.9404L59.2134 44.0775L59.2211 44.0735L57.593 40.9404ZM57.593 1.00164L59.2211 -2.13148L59.2052 -2.13972L59.1893 -2.1478L57.593 1.00164ZM56.5521 1.07298L54.5318 -1.82282L54.5211 -1.81529L56.5521 1.07298ZM30.0023 19.7427L26.4714 19.7427L26.4714 26.5421L32.0333 22.631L30.0023 19.7427ZM29.4607 0.989583L31.0888 -2.14354L31.0815 -2.14736L31.0741 -2.15114L29.4607 0.989583ZM28.4198 1.06092L30.4518 3.94851L30.4593 3.9432L28.4198 1.06092ZM1.29231 20.1507L3.31058 23.0478L3.31746 23.0431L3.32432 23.0382L1.29231 20.1507ZM56.1251 3.82893L59.656 3.82893L59.656 -2.97069L54.094 0.940723L56.1251 3.82893ZM56.1251 38.1131L54.0941 41.0014L59.656 44.9125L59.656 38.1131L56.1251 38.1131ZM31.7485 20.9715L29.7174 18.0833L25.6103 20.9716L29.7175 23.8598L31.7485 20.9715ZM27.9928 3.81788L31.5237 3.81788L31.5237 -2.9841L25.9609 0.930245L27.9928 3.81788ZM27.9928 38.1252L25.9609 41.0128L31.5237 44.9271L31.5237 38.1252L27.9928 38.1252ZM3.61524 20.9715L1.58331 18.0839L-2.5204 20.9715L1.58331 23.8591L3.61524 20.9715ZM-0.739687 24.68L26.3878 43.7697L30.4518 37.9945L3.32432 18.9048L-0.739687 24.68ZM26.3836 43.7667C27.7766 44.75 29.5861 44.8618 31.0811 44.0896L27.8404 37.8153C28.6662 37.3887 29.678 37.4483 30.456 37.9975L26.3836 43.7667ZM31.0814 44.0894C32.593 43.3085 33.5332 41.7501 33.5332 40.0613L26.4714 40.0613C26.4714 39.122 26.9936 38.2528 27.8401 37.8155L31.0814 44.0894ZM33.5332 40.0613L33.5332 22.2003L26.4714 22.2003L26.4714 40.0613L33.5332 40.0613ZM27.9712 25.0885L54.521 43.7593L58.5832 37.9828L32.0334 19.3121L27.9712 25.0885ZM54.5304 43.7659C55.9067 44.727 57.7085 44.8548 59.2134 44.0775L55.9726 37.8033C56.8083 37.3716 57.8103 37.4431 58.5737 37.9762L54.5304 43.7659ZM59.2211 44.0735C60.7246 43.2922 61.6654 41.7386 61.6654 40.0482L54.6036 40.0482C54.6036 39.1073 55.1265 38.2429 55.9649 37.8073L59.2211 44.0735ZM61.6654 40.0482L61.6654 1.89384L54.6036 1.89384L54.6036 40.0482L61.6654 40.0482ZM61.6654 1.89384C61.6654 0.203461 60.7246 -1.35021 59.2211 -2.13148L55.9649 4.13477C55.1265 3.69912 54.6036 2.83469 54.6036 1.89384L61.6654 1.89384ZM59.1893 -2.1478C58.5484 -2.47262 57.8429 -2.64077 57.1298 -2.64077L57.1298 4.421C56.7322 4.421 56.3442 4.32721 55.9967 4.15108L59.1893 -2.1478ZM57.1298 -2.64077C56.204 -2.64077 55.2969 -2.35662 54.5318 -1.8228L58.5724 3.96875C58.1529 4.26144 57.6497 4.421 57.1298 4.421L57.1298 -2.64077ZM54.5211 -1.81529L27.9713 16.8545L32.0333 22.631L58.5831 3.96125L54.5211 -1.81529ZM33.5332 19.7427L33.5332 1.88178L26.4714 1.88178L26.4714 19.7427L33.5332 19.7427ZM33.5332 1.88178C33.5332 0.191404 32.5923 -1.36227 31.0888 -2.14354L27.8326 4.12271C26.9943 3.68706 26.4714 2.82263 26.4714 1.88178L33.5332 1.88178ZM31.0741 -2.15114C30.4237 -2.48524 29.7113 -2.65383 28.9976 -2.65383L28.9976 4.40794C28.5993 4.40794 28.2044 4.3137 27.8473 4.1303L31.0741 -2.15114ZM28.9976 -2.65383C28.0762 -2.65383 27.1584 -2.37192 26.3803 -1.82136L30.4593 3.9432C30.0249 4.25061 29.513 4.40794 28.9976 4.40794L28.9976 -2.65383ZM26.3878 -1.82666L-0.739687 17.2631L3.32432 23.0382L30.4518 3.9485L26.3878 -1.82666ZM-0.725954 17.2535C-1.95203 18.1076 -2.66558 19.5023 -2.66558 20.9715L4.39619 20.9715C4.39619 21.7876 4.00014 22.5675 3.31058 23.0478L-0.725954 17.2535ZM-2.66558 20.9715C-2.66558 22.4407 -1.95203 23.8354 -0.725955 24.6896L3.31058 18.8952C4.00014 19.3755 4.39619 20.1554 4.39619 20.9715L-2.66558 20.9715ZM52.5942 3.82893L52.5942 38.1131L59.656 38.1131L59.656 3.82893L52.5942 3.82893ZM58.1561 35.2248L33.7795 18.0832L29.7175 23.8598L54.0941 41.0014L58.1561 35.2248ZM33.7796 23.8597L58.1562 6.71714L54.094 0.940723L29.7174 18.0833L33.7796 23.8597ZM24.4619 3.81788L24.4619 38.1252L31.5237 38.1252L31.5237 3.81788L24.4619 3.81788ZM30.0248 35.2375L5.64716 18.0839L1.58331 23.8591L25.9609 41.0128L30.0248 35.2375ZM5.64716 23.8591L30.0248 6.70551L25.9609 0.930245L1.58331 18.0839L5.64716 23.8591Z" fill="white" mask="url(#path-1-inside-1_2_30)"/>
</g>
</svg>
