<svg xmlns="http://www.w3.org/2000/svg" width="41" height="42" viewBox="0 0 41 42" fill="none">
  <mask id="path-1-inside-1_2_59" fill="white">
    <path d="M40.4086 39.001L30.5616 29.154C33.2031 26.1172 34.8023 22.1551 34.8023 17.8246C34.8023 8.29206 27.0487 0.547455 17.5252 0.547455C7.99266 0.547455 0.248047 8.30105 0.248047 17.8246C0.248047 27.3481 8.00164 35.1017 17.5252 35.1017C21.8557 35.1017 25.8178 33.5025 28.8546 30.861L38.7016 40.708C38.9352 40.9416 39.2496 41.0674 39.5551 41.0674C39.8605 41.0674 40.175 40.9506 40.4086 40.708C40.8758 40.2408 40.8758 39.4682 40.4086 39.001ZM2.66487 17.8246C2.66487 9.63075 9.33134 2.97326 17.5162 2.97326C25.71 2.97326 32.3675 9.63973 32.3675 17.8246C32.3675 26.0094 25.71 32.6849 17.5162 32.6849C9.33134 32.6849 2.66487 26.0184 2.66487 17.8246Z"/>
  </mask>
  <path d="M40.4086 39.001L30.5616 29.154C33.2031 26.1172 34.8023 22.1551 34.8023 17.8246C34.8023 8.29206 27.0487 0.547455 17.5252 0.547455C7.99266 0.547455 0.248047 8.30105 0.248047 17.8246C0.248047 27.3481 8.00164 35.1017 17.5252 35.1017C21.8557 35.1017 25.8178 33.5025 28.8546 30.861L38.7016 40.708C38.9352 40.9416 39.2496 41.0674 39.5551 41.0674C39.8605 41.0674 40.175 40.9506 40.4086 40.708C40.8758 40.2408 40.8758 39.4682 40.4086 39.001ZM2.66487 17.8246C2.66487 9.63075 9.33134 2.97326 17.5162 2.97326C25.71 2.97326 32.3675 9.63973 32.3675 17.8246C32.3675 26.0094 25.71 32.6849 17.5162 32.6849C9.33134 32.6849 2.66487 26.0184 2.66487 17.8246Z" fill="white"/>
  <path d="M40.4086 39.001L35.7634 43.6462H35.7634L40.4086 39.001ZM30.5616 29.154L25.605 24.8426L21.5833 29.4661L25.9164 33.7992L30.5616 29.154ZM34.8023 17.8246H41.3716H34.8023ZM28.8546 30.861L33.4998 26.2158L29.1667 21.8827L24.5432 25.9044L28.8546 30.861ZM38.7016 40.708L34.0563 45.3532L38.7016 40.708ZM40.4086 40.708L35.7634 36.0628L35.7196 36.1066L35.6766 36.1512L40.4086 40.708ZM17.5162 32.6849V39.2542V32.6849ZM45.0538 34.3557L35.2069 24.5088L25.9164 33.7992L35.7634 43.6462L45.0538 34.3557ZM35.5183 33.4654C39.1571 29.2819 41.3716 23.8033 41.3716 17.8246H28.233C28.233 20.5069 27.249 22.9526 25.605 24.8426L35.5183 33.4654ZM41.3716 17.8246C41.3716 4.66169 30.6746 -6.02189 17.5252 -6.02189V7.1168C23.4228 7.1168 28.233 11.9224 28.233 17.8246H41.3716ZM17.5252 -6.02189C4.36229 -6.02189 -6.3213 4.67512 -6.3213 17.8246H6.81739C6.81739 11.927 11.623 7.1168 17.5252 7.1168V-6.02189ZM-6.3213 17.8246C-6.3213 30.9763 4.37349 41.671 17.5252 41.671V28.5324C11.6298 28.5324 6.81739 23.72 6.81739 17.8246H-6.3213ZM17.5252 41.671C23.5039 41.671 28.9825 39.4565 33.166 35.8177L24.5432 25.9044C22.6532 27.5484 20.2075 28.5324 17.5252 28.5324V41.671ZM24.2094 35.5063L34.0563 45.3532L43.3468 36.0628L33.4998 26.2158L24.2094 35.5063ZM34.0563 45.3532C35.5152 46.8121 37.4978 47.6367 39.5551 47.6367V34.498C41.0014 34.498 42.3551 35.0711 43.3468 36.0628L34.0563 45.3532ZM39.5551 47.6367C41.5004 47.6367 43.5713 46.8944 45.1406 45.2648L35.6766 36.1512C36.7787 35.0067 38.2207 34.498 39.5551 34.498V47.6367ZM45.0538 45.3532C48.0865 42.3206 48.0865 37.3884 45.0538 34.3557L35.7634 43.6462C33.6651 41.5479 33.6651 38.1611 35.7634 36.0628L45.0538 45.3532ZM9.23421 17.8246C9.23421 13.2615 12.9569 9.5426 17.5162 9.5426V-3.59608C5.70578 -3.59608 -3.90447 6.00001 -3.90447 17.8246H9.23421ZM17.5162 9.5426C22.0793 9.5426 25.7982 13.2653 25.7982 17.8246H38.9369C38.9369 6.01417 29.3408 -3.59608 17.5162 -3.59608V9.5426ZM25.7982 17.8246C25.7982 22.389 22.0741 26.1155 17.5162 26.1155V39.2542C29.3459 39.2542 38.9369 29.6298 38.9369 17.8246H25.7982ZM17.5162 26.1155C12.9621 26.1155 9.23421 22.3928 9.23421 17.8246H-3.90447C-3.90447 29.644 5.70061 39.2542 17.5162 39.2542V26.1155Z" fill="white" mask="url(#path-1-inside-1_2_59)"/>
</svg>